<svg width="859" height="863" viewBox="0 0 859 863" fill="none" xmlns="http://www.w3.org/2000/svg">
<g opacity="0.1">
<path opacity="0.7" d="M122.7 114.6C185.3 113.2 235.7 62.6 236.8 0C174.8 2.6 125 52.5 122.7 114.6ZM122.7 123.2C125 185.3 174.8 235.2 236.8 237.8C235.7 175.1 185.3 124.5 122.7 123.2ZM245.4 730.6C308 729.2 358.4 678.6 359.5 616C297.5 618.5 247.7 668.5 245.4 730.6ZM245.4 0C246.5 62.6 296.9 113.2 359.5 114.6C357.2 52.5 307.5 2.6 245.4 0ZM245.4 739.2C247.7 801.3 297.5 851.2 359.5 853.8C358.4 791.1 308 740.5 245.4 739.2ZM122.7 246.4C123.8 309 174.2 359.6 236.8 361C234.5 298.9 184.7 248.9 122.7 246.4ZM850.4 492.8C788.4 495.4 738.6 545.3 736.3 607.4C798.9 606 849.3 555.4 850.4 492.8ZM0 492.8C1.1 555.4 51.5 606 114.1 607.4C111.8 545.3 62 495.3 0 492.8ZM0 361C62.6 359.6 113 309 114.1 246.4C52.1 248.9 2.3 298.9 0 361ZM0 369.6C2.3 431.7 52.1 481.6 114.1 484.2C113 421.5 62.6 370.9 0 369.6ZM736.3 739.2C737.4 801.8 787.8 852.4 850.4 853.8C848.1 791.7 798.3 741.7 736.3 739.2ZM490.9 237.8C553.5 236.4 603.9 185.8 605 123.2C542.9 125.7 493.2 175.7 490.9 237.8ZM613.6 853.8C676.2 852.4 726.6 801.8 727.7 739.2C665.7 741.7 615.9 791.7 613.6 853.8ZM613.6 123.2C614.7 185.8 665.1 236.4 727.7 237.8C725.4 175.7 675.6 125.7 613.6 123.2ZM736.3 616C738.6 678.1 788.4 728 850.4 730.6C849.3 667.9 798.9 617.3 736.3 616ZM368.1 616C369.2 678.6 419.6 729.2 482.2 730.6C480 668.5 430.2 618.5 368.1 616ZM613.6 0C615.9 62.1 665.7 112 727.7 114.6C726.6 52 676.1 1.4 613.6 0ZM368.1 492.8C370.4 554.9 420.2 604.8 482.2 607.4C481.2 544.7 430.7 494.1 368.1 492.8ZM490.9 246.4C493.2 308.5 543 358.4 605 361C603.9 298.3 553.4 247.7 490.9 246.4ZM368.1 484.2C430.7 482.8 481.1 432.2 482.2 369.6C420.2 372.1 370.4 422.1 368.1 484.2ZM490.9 369.6C492 432.2 542.4 482.8 605 484.2C602.7 422.1 552.9 372.1 490.9 369.6Z" fill="white"/>
<path d="M245.4 607.4H359.5V492.8C297 494.1 246.5 544.7 245.4 607.4ZM122.7 484.2C185.3 482.8 235.7 432.2 236.8 369.6C174.8 372.1 125 422.1 122.7 484.2ZM122.7 492.8V607.4H236.8C235.7 544.7 185.3 494.1 122.7 492.8ZM245.4 369.6C246.5 432.2 296.9 482.8 359.5 484.2C357.2 422.1 307.5 372.1 245.4 369.6ZM245.4 237.8C308 236.4 358.4 185.8 359.5 123.2C297.5 125.7 247.7 175.7 245.4 237.8ZM245.4 246.4V361H359.5C358.4 298.3 308 247.7 245.4 246.4ZM0 237.8H114.1V123.2C51.5 124.5 1.1 175.1 0 237.8ZM0 739.2V853.8H114.1C113 791.1 62.6 740.5 0 739.2ZM0 730.6C62.6 729.2 113 678.6 114.1 616C52.1 618.5 2.3 668.5 0 730.6ZM850.4 0C788.4 2.6 738.6 52.5 736.3 114.6C798.9 113.2 849.3 62.6 850.4 0ZM0 0C1.1 62.6 51.5 113.2 114.1 114.6C111.8 52.5 62 2.6 0 0ZM122.7 853.8H236.8V739.2C174.3 740.5 123.8 791.1 122.7 853.8ZM122.7 616C123.8 678.6 174.2 729.2 236.8 730.6C234.5 668.5 184.7 618.5 122.7 616ZM368.1 853.8C430.7 852.4 481.1 801.8 482.2 739.2C420.2 741.7 370.4 791.7 368.1 853.8ZM368.1 0V114.6H482.2C481.2 52 430.7 1.4 368.1 0ZM613.6 361C676.2 359.6 726.6 309 727.7 246.4C665.7 248.9 615.9 298.9 613.6 361ZM736.3 484.2H850.4V369.6C787.8 370.9 737.4 421.5 736.3 484.2ZM613.6 369.6V484.2H727.7C726.6 421.5 676.1 370.9 613.6 369.6ZM736.3 123.2V237.8H850.4C849.3 175.1 798.9 124.5 736.3 123.2ZM736.3 246.4C737.4 309 787.8 359.6 850.4 361C848.1 298.9 798.3 248.9 736.3 246.4ZM368.1 361H482.2V246.4C419.7 247.7 369.2 298.3 368.1 361ZM613.6 492.8C614.7 555.4 665.1 606 727.7 607.4C725.4 545.3 675.6 495.3 613.6 492.8ZM490.9 616V730.6H605C603.9 667.9 553.4 617.3 490.9 616ZM490.9 739.2C492 801.8 542.4 852.4 605 853.8C602.7 791.7 552.9 741.7 490.9 739.2ZM368.1 123.2C369.2 185.8 419.6 236.4 482.2 237.8C480 175.7 430.2 125.7 368.1 123.2ZM490.9 114.6H605V0C542.4 1.4 492 52 490.9 114.6ZM613.6 730.6H727.7V616C665.1 617.3 614.7 667.9 613.6 730.6ZM490.9 607.4C553.5 606 603.9 555.4 605 492.8C542.9 495.3 493.2 545.3 490.9 607.4Z" fill="white"/>
</g>
</svg>
