<svg xmlns="http://www.w3.org/2000/svg" viewBox="0 0 664 155">
	<defs>
		<linearGradient id="gradient-1" x1="0%" y1="0%" x2="100%" y2="0%">
			<stop offset="0%" id="stop-1"></stop>
			<stop offset="50%" id="stop-2"></stop>
		</linearGradient>
		<linearGradient id="gradient-2" x1="0%" y1="0%" x2="0%" y2="100%">
			<stop offset="0%" id="stop-1"></stop>
			<stop offset="50%" id="stop-2"></stop>
		</linearGradient>
	</defs>
	<polyline id="f-horizontal" points="112.208 40.464 43.378 40.464 43.378 0.384 112.207 0.384 112.207 40.464" fill="url(#gradient-1)"></polyline>
	<polygon id="f-vertical" points="0.002 154.94 40.078 154.94 40.078 101.009 0.002 101.009" fill="url(#gradient-2)"></polygon>
	<path class="fill" d="M149.9 39.874h8.477V26.466H149.9zM160.905 7.596h15.28V.976h-15.28z"></path>
	<path class="fill" d="M158.377.976H149.9v23.008h21.03V17.61h-12.553V.976M219.577 20.423c0-8.833-4.715-19.373-17.999-20.039v6.959c6.744.799 9.15 7.274 9.15 13.08 0 4.084-.982 7.341-2.915 9.69-1.577 1.917-3.791 3.141-6.235 3.452v6.901c13.284-.666 17.999-11.21 17.999-20.043M186.759 35.529c3.108 2.93 7.47 4.68 12.288 4.937v-6.897c-6.745-.798-9.151-7.309-9.151-13.146 0-4.82 1.29-8.412 3.832-10.688 1.927-1.722 4.142-2.236 5.319-2.388V.384c-13.285.666-17.999 11.206-17.999 20.039 0 6.355 1.973 11.58 5.711 15.106M241.649 40.408V33.71c-3.339-.304-7.296-2.229-7.296-9.636V.976h-8.476v23.098c0 10.232 5.453 15.877 15.772 16.334M259.953.976h-8.477v23.098c0 7.407-3.957 9.332-7.296 9.636v6.698c10.32-.46 15.773-6.106 15.773-16.334V.976M296 22.683l8.414 11.409V.976H296v21.707M276.216 18.229l-8.474-11.533v33.178h8.474V18.229M304.414 39.874v-1.489L276.843.976h-9.101v1.426l27.631 37.472h9.041M312.51 39.873h8.477V.976h-8.477zM348.566 20.423c0-12.176-8.356-19.447-22.355-19.447h-2.693v6.62h2.693c8.457 0 13.506 4.797 13.506 12.827 0 8.034-5.049 12.831-13.506 12.831h-2.693v6.62h2.693c13.999 0 22.355-7.271 22.355-19.451M389.692 39.874L374.433.976h-8.267l14.539 38.898h8.987M371.952 24.163h-7.222l.026-.066 3.556-9.608-4.093-11.214-14.364 36.599h8.987l3.339-9.028h12.256l-2.485-6.683M399.332 39.874h8.476V10.125h-8.476zM386.965 7.596h33.21V.976h-33.21zM425.18 39.873h8.475V.976h-8.475zM478.424 20.423c0-8.833-4.714-19.373-18-20.039v6.959c6.748.803 9.153 7.278 9.153 13.08 0 4.084-.982 7.341-2.916 9.69-1.578 1.917-3.791 3.141-6.237 3.452v6.901c13.286-.666 18-11.21 18-20.043M457.896 40.466v-6.897c-6.747-.798-9.153-7.309-9.153-13.146 0-4.82 1.29-8.412 3.832-10.688 1.929-1.722 4.144-2.236 5.321-2.388V.384c-13.285.666-18 11.206-18 20.039 0 6.347 1.974 11.572 5.711 15.106 3.109 2.93 7.471 4.68 12.289 4.937M521.339.976h-8.415v21.707l8.415 11.409V.976M493.142 18.229l-8.476-11.533v33.178h8.476V18.229M484.666.976v1.426l27.631 37.472h9.042v-1.489L493.769.976h-9.103M149.9 97.123h8.477V83.93H149.9zM160.905 64.846h15.28v-6.62h-15.28z"></path>
	<path class="fill" d="M158.377 58.226H149.9v23.223h21.03v-6.593h-12.553v-16.63M186.759 92.779c3.108 2.93 7.47 4.679 12.288 4.933V90.82c-6.745-.807-9.151-7.314-9.151-13.147 0-4.82 1.29-8.412 3.832-10.688 1.927-1.722 4.142-2.236 5.319-2.389V57.63c-13.285.662-17.999 11.206-17.999 20.043 0 6.355 1.973 11.58 5.711 15.106M219.577 77.673c0-8.833-4.715-19.377-17.999-20.039v6.959c6.744.798 9.15 7.274 9.15 13.08 0 4.079-.982 7.337-2.915 9.686-1.577 1.918-3.791 3.144-6.235 3.457v6.896c13.284-.663 17.999-11.206 17.999-20.039M226.187 97.123h8.599V58.226h-8.599zM244.339 58.226h-7.022v6.62h7.022c6.91 0 7.447 4.52 7.447 5.903s-.537 5.903-7.447 5.903h-7.022v6.62h6.464c10.787-.113 16.727-4.559 16.727-12.523 0-8.077-5.742-12.523-16.169-12.523M245.024 85.777l3.505 11.346h9.31l-4.375-12.85c-2.428.881-5.267 1.387-8.44 1.504M291.18 64.846h15.278v-6.62H291.18zM280.173 97.123h8.476V83.93h-8.476z"></path>
	<path class="fill" d="M288.649 58.226h-8.476v23.223h21.031v-6.593h-12.555v-16.63M338.609 81.324c0 7.411-3.959 9.332-7.298 9.631v6.703c10.32-.46 15.773-6.106 15.773-16.334V58.226h-8.475v23.098M321.484 58.226h-8.475v23.098c0 10.232 5.454 15.877 15.771 16.334v-6.703c-3.339-.299-7.296-2.22-7.296-9.631V58.226M364.147 97.124h8.477V67.375h-8.477zM351.78 64.846h33.211v-6.62H351.78zM407.989 97.658c10.319-.46 15.772-6.106 15.772-16.334V58.226h-8.476v23.098c0 7.411-3.956 9.332-7.296 9.631v6.703M398.163 81.324V58.226h-8.477v23.098c0 10.232 5.453 15.877 15.773 16.334v-6.703c-3.339-.299-7.296-2.22-7.296-9.631M449.416 58.226h-7.02v6.62h7.02c6.91 0 7.447 4.52 7.447 5.903s-.537 5.903-7.447 5.903h-7.02v6.62h6.464c10.787-.113 16.728-4.559 16.728-12.523 0-8.077-5.744-12.523-16.172-12.523M431.264 97.123h8.601V58.226h-8.601zM450.101 85.777l3.505 11.346h9.313l-4.378-12.85c-2.426.881-5.264 1.387-8.44 1.504M479.688 58.226h-8.474v22.365h21.03v-6.413h-12.556V58.226"></path>
	<path class="fill" d="M482.218 64.846h15.279v-6.62h-15.279zM479.688 83.042h-8.474v14.081h26.407v-6.561h-17.933v-7.52M149.9 154.411h8.477V115.51H149.9zM160.905 154.411h16.281v-6.561h-16.281zM219.341 134.96c0-8.833-4.714-19.376-17.999-20.039v6.955c6.747.807 9.152 7.282 9.152 13.084 0 4.08-.982 7.337-2.916 9.687-1.578 1.917-3.791 3.144-6.236 3.456v6.896c13.285-.662 17.999-11.206 17.999-20.039M186.524 150.067c3.106 2.929 7.469 4.679 12.287 4.932v-6.892c-6.745-.807-9.15-7.314-9.15-13.147 0-4.819 1.289-8.412 3.832-10.687 1.925-1.722 4.14-2.237 5.318-2.389v-6.967c-13.285.663-17.999 11.206-17.999 20.043 0 6.356 1.973 11.58 5.712 15.107M234.427 132.763l-8.476-11.533v33.181h8.476v-21.648M225.951 115.51v1.43l27.631 37.471h9.042v-1.488l-27.571-37.413h-9.102M254.21 137.22l8.414 11.409V115.51h-8.414v21.71M284.42 115.51h-2.693v6.624h2.693c8.459 0 13.508 4.796 13.508 12.826 0 8.03-5.049 12.827-13.508 12.827h-2.693v6.624h2.693c14 0 22.355-7.27 22.355-19.451 0-12.179-8.355-19.45-22.355-19.45M270.722 154.411h8.475V115.51h-8.475zM317.442 150.067c3.108 2.929 7.471 4.679 12.289 4.932v-6.892c-6.747-.807-9.153-7.314-9.153-13.147 0-4.819 1.29-8.412 3.832-10.687 1.923-1.718 4.142-2.237 5.321-2.389v-6.967c-13.285.663-18 11.206-18 20.043 0 6.348 1.974 11.572 5.711 15.107M350.258 134.96c0-8.833-4.713-19.376-17.999-20.039v6.955c6.748.807 9.153 7.282 9.153 13.084 0 4.08-.982 7.337-2.916 9.687-1.578 1.917-3.791 3.144-6.237 3.456v6.896c13.286-.662 17.999-11.206 17.999-20.039M384.759 137.22l8.415 11.409V115.51h-8.415v21.71M356.501 115.51v1.43l27.631 37.471h9.042v-1.488l-27.57-37.413h-9.103M364.977 132.763l-8.476-11.533v33.181h8.476v-21.648M.002.386v97.325h88.967v-40.08h-48.89V.386H.002"></path>
</svg>