<svg width="571" height="83" viewBox="0 0 571 83" fill="none" xmlns="http://www.w3.org/2000/svg">
<g clip-path="url(#clip0_458_1465)">
<path d="M514.82 53.5817C514.697 46.8039 511.942 40.3361 507.13 35.5331C502.318 30.73 495.824 27.9644 489.007 27.8154C489.262 34.5503 492.061 40.9423 496.845 45.7176C501.628 50.4929 508.046 53.3007 514.82 53.5817Z" fill="#FFA700"/>
<path d="M514.82 0C514.697 6.77828 511.942 13.2466 507.13 18.0505C502.319 22.8544 495.824 25.6212 489.007 25.7715C489.262 19.0361 492.061 12.6435 496.844 7.86734C501.628 3.09121 508.046 0.282208 514.82 0V0Z" fill="#FFA700"/>
<path d="M517.084 0C517.208 6.77787 519.964 13.2455 524.775 18.0491C529.586 22.8527 536.08 25.6199 542.897 25.7715C542.642 19.0361 539.843 12.6435 535.06 7.86734C530.276 3.09121 523.858 0.282208 517.084 0V0Z" fill="#FFA700"/>
<path d="M545.187 27.8154C545.308 34.5936 548.064 41.0621 552.876 45.8654C557.687 50.6687 564.183 53.434 571 53.5817C570.743 46.8472 567.945 40.4558 563.161 35.6808C558.378 30.9058 551.96 28.0975 545.187 27.8154Z" fill="white"/>
<path d="M517.084 55.6307V81.3971H542.897C542.776 74.6189 540.02 68.1503 535.209 63.347C530.397 58.5437 523.901 55.7784 517.084 55.6307Z" fill="white"/>
<path d="M545.187 81.3971H571V55.6307C564.183 55.7784 557.687 58.5437 552.876 63.347C548.064 68.1503 545.308 74.6189 545.187 81.3971Z" fill="white"/>
<path d="M542.907 27.8154C542.786 34.5953 540.029 41.0653 535.215 45.8689C530.401 50.6725 523.903 53.4366 517.084 53.5817C517.341 46.8455 520.141 40.4527 524.927 35.6774C529.713 30.9021 536.133 28.0949 542.907 27.8154Z" fill="white"/>
<path d="M13.968 47.8806C11.7666 49.1742 9.97627 51.0584 8.8024 53.3171C7.4979 55.8455 6.84698 58.6569 6.90834 61.4978C6.83095 64.3813 7.45946 67.2404 8.73979 69.8289C9.87286 72.0647 11.6372 73.9233 13.8167 75.1772C16.1103 76.4449 18.7015 77.084 21.3251 77.0292C25.6942 77.0292 29.1727 75.7738 31.7607 73.2631C34.3699 70.7511 36.0798 67.4587 36.629 63.8892L42.6399 66.2755C41.9654 69.3951 40.6334 72.3371 38.7317 74.9075C36.8334 77.4493 34.3379 79.4904 31.4633 80.8524C28.2928 82.3273 24.825 83.0619 21.3251 83C17.405 83.0829 13.535 82.1134 10.1225 80.1936C6.95085 78.3762 4.35923 75.7061 2.64539 72.4901C0.852489 69.1037 -0.0570927 65.3242 -3.54098e-05 61.4978C-0.0503663 57.6691 0.902698 53.8933 2.7654 50.5418C4.55477 47.309 7.20958 44.6319 10.4356 42.8072C13.7517 40.9209 17.5154 39.9519 21.3356 40.0008C24.5205 39.9255 27.6792 40.5898 30.5606 41.9409C33.0464 43.1237 35.2166 44.8725 36.8951 47.0454C38.4812 49.124 39.6262 51.5013 40.2605 54.033L34.2549 56.7201C33.7073 53.7521 32.2103 51.0393 29.9867 48.9856C27.7848 46.9763 24.9011 45.9716 21.3356 45.9716C18.7512 45.9331 16.2048 46.5929 13.968 47.8806Z" fill="white"/>
<path d="M54.7295 54.09V58.24C55.2086 56.8327 56.1214 55.6112 57.3384 54.7489C58.6061 53.905 60.1078 53.4769 61.6327 53.5246C62.72 53.491 63.8028 53.6774 64.8154 54.0724C65.8281 54.4674 66.7494 55.0629 67.5236 55.8227C68.2887 56.5619 68.8917 57.4504 69.2949 58.4323C69.6981 59.4143 69.8926 60.4686 69.8664 61.5289C69.8745 62.7365 69.7325 63.9405 69.4437 65.1135H63.1824C63.3423 64.328 63.4227 63.5286 63.4224 62.7272C63.4366 62.2096 63.3365 61.6952 63.1292 61.2202C62.9218 60.7452 62.6123 60.3211 62.2223 59.9779C61.3297 59.2578 60.2067 58.8801 59.0577 58.9134C57.9087 58.9467 56.8098 59.3888 55.9609 60.1594C55.5337 60.6252 55.2046 61.1713 54.9931 61.7656C54.7817 62.3599 54.692 62.9902 54.7295 63.6195V82.4345H48.4212V54.09H54.7295Z" fill="white"/>
<path d="M93.5343 76.1006C94.9212 74.9776 95.8593 73.3993 96.1798 71.6497L101.585 73.7247C100.742 76.4473 99.0613 78.8385 96.7798 80.5619C94.5779 82.1735 91.7951 82.9793 88.4313 82.9793C85.7432 83.0364 83.085 82.4096 80.709 81.1584C78.4996 79.9701 76.6864 78.1675 75.4912 75.9709C74.2035 73.5344 73.5624 70.8116 73.6284 68.06C73.6011 65.5018 74.1954 62.9748 75.3607 60.6937C76.4623 58.5275 78.1478 56.7082 80.2289 55.4388C82.4298 54.1169 84.9631 53.4441 87.5339 53.4987C89.8328 53.4567 92.1079 53.9675 94.1657 54.9875C96.0794 55.9585 97.6662 57.464 98.7313 59.3191C99.869 61.3534 100.44 63.6528 100.385 65.9798C100.385 67.0812 100.284 68.1803 100.083 69.2635H79.9576C79.9576 72.0129 80.8098 74.0879 82.5143 75.4885C84.1817 76.8915 86.3046 77.6454 88.4887 77.6102C90.2937 77.6876 92.072 77.1555 93.5343 76.1006ZM82.4517 60.5381C81.0598 61.6724 80.1655 63.2999 79.9576 65.0772H94.077L94.1344 64.5584C94.1667 63.7682 94.0127 62.9814 93.6848 62.2608C93.3568 61.5403 92.8639 60.9059 92.2455 60.4084C90.8797 59.3626 89.1888 58.8248 87.466 58.8885C85.6471 58.8326 83.8669 59.4188 82.4413 60.5433L82.4517 60.5381Z" fill="white"/>
<path d="M111.197 81.9625C109.773 81.3045 108.558 80.2733 107.68 78.9797C106.76 77.5972 106.289 75.9679 106.328 74.311C106.328 71.2503 107.349 68.9713 109.391 67.4738C111.433 65.9764 114.042 65.2311 117.218 65.238C118.918 65.2297 120.613 65.4301 122.264 65.8346L125.269 66.5505V64.4755C125.314 63.653 125.166 62.8315 124.837 62.0754C124.508 61.3193 124.008 60.6493 123.375 60.118C122.046 59.0593 120.381 58.5074 118.679 58.5617C117.03 58.4659 115.405 58.9899 114.126 60.0295C112.848 61.0692 112.009 62.5487 111.776 64.1746L106.068 62.6858C106.616 60.0335 108.096 57.6616 110.242 55.9939C112.381 54.3235 115.193 53.4883 118.679 53.4883C122.728 53.4883 125.843 54.474 128.024 56.4452C130.205 58.4165 131.296 61.1831 131.296 64.7452V82.3827H125.253V77.605C124.585 79.2275 123.404 80.5896 121.888 81.4853C120.288 82.4951 118.225 83 115.7 83C114.139 82.995 112.6 82.6403 111.197 81.9625ZM123.302 76.0228C123.948 75.4914 124.461 74.8176 124.799 74.055C125.138 73.2923 125.294 72.4618 125.253 71.629V71.3333L122.968 70.7368C121.423 70.2947 119.831 70.0336 118.225 69.9587C116.88 69.8941 115.545 70.2165 114.379 70.8872C113.907 71.1903 113.525 71.613 113.272 72.1117C113.019 72.6105 112.904 73.1672 112.939 73.7248C112.93 74.254 113.041 74.7786 113.264 75.2592C113.487 75.7397 113.817 76.164 114.228 76.5001C115.087 77.2367 116.42 77.605 118.225 77.605C120.049 77.6918 121.846 77.1392 123.302 76.0436V76.0228Z" fill="white"/>
<path d="M142.916 80.4322C141.194 78.703 140.324 76.3738 140.307 73.4446V59.4695H134.619V54.09H140.322V45.0742H146.62V54.09H157.437V59.4695H146.62V73.7455C146.582 74.2736 146.655 74.8039 146.835 75.3023C147.014 75.8008 147.297 76.2564 147.664 76.6401C148.35 77.2908 149.267 77.6451 150.215 77.6257C150.736 77.6566 151.256 77.5673 151.736 77.3648C152.216 77.1623 152.642 76.8521 152.981 76.4585C153.617 75.6873 153.998 74.4769 154.123 72.8273L160.129 74.0204C159.847 76.8493 158.856 79.0488 157.155 80.6189C155.454 82.189 153.25 82.9827 150.544 83C147.18 83 144.638 82.144 142.916 80.4322Z" fill="white"/>
<path d="M165.263 42.3871H172.188V49.2813H165.263V42.3871ZM171.869 54.0901V82.4035H165.561V54.0901H171.869Z" fill="white"/>
<path d="M191.754 76.1318L200.103 54.0901H206.714L195.36 82.4035H188.149L176.795 54.0901H183.406L191.754 76.1318Z" fill="white"/>
<path d="M228.879 76.1006C230.266 74.9786 231.203 73.3995 231.519 71.6497L236.93 73.7247C236.087 76.4473 234.406 78.8385 232.124 80.5619C229.916 82.1735 227.133 82.9793 223.776 82.9793C221.09 83.0357 218.433 82.4089 216.059 81.1584C213.849 79.9701 212.036 78.1675 210.841 75.9709C209.553 73.5344 208.912 70.8116 208.978 68.06C208.949 65.5022 209.542 62.9752 210.705 60.6937C211.807 58.5275 213.492 56.7082 215.574 55.4388C217.774 54.1169 220.308 53.4441 222.879 53.4987C225.177 53.4574 227.452 53.9681 229.51 54.9875C231.424 55.9585 233.011 57.464 234.076 59.3191C235.212 61.3538 235.781 63.6532 235.725 65.9798C235.726 67.0811 235.626 68.1802 235.427 69.2635H215.302C215.302 72.0129 216.153 74.0879 217.854 75.4885C219.523 76.9007 221.652 77.6604 223.844 77.6257C225.647 77.6963 227.422 77.1588 228.879 76.1006ZM217.796 60.5381C216.402 61.6706 215.507 63.299 215.302 65.0772H229.416L229.479 64.5584C229.512 63.7677 229.357 62.9803 229.028 62.2596C228.699 61.5389 228.205 60.9049 227.585 60.4084C226.221 59.3625 224.532 58.8247 222.811 58.8885C220.995 58.835 219.219 59.4211 217.796 60.5433V60.5381Z" fill="white"/>
<path d="M256.079 82.4034H249.468V40.5974H260.948L280.535 77.6828V40.5974H287.136V82.4034H275.657L256.079 45.375V82.4034Z" fill="white"/>
<path d="M313.507 76.1006C314.895 74.9791 315.834 73.4001 316.152 71.6497L321.558 73.7247C320.714 76.4473 319.034 78.8385 316.752 80.5619C314.55 82.1735 311.767 82.9793 308.404 82.9793C305.715 83.0364 303.057 82.4096 300.681 81.1584C298.472 79.9701 296.659 78.1675 295.463 75.9709C294.176 73.5344 293.535 70.8116 293.601 68.06C293.572 65.5022 294.164 62.9752 295.328 60.6937C296.426 58.5266 298.11 56.7068 300.191 55.4388C302.392 54.1169 304.925 53.4441 307.496 53.4987C309.798 53.4544 312.077 53.9653 314.138 54.9875C316.052 55.9585 317.638 57.464 318.703 59.3191C319.847 61.3519 320.423 63.6514 320.373 65.9798C320.375 67.0814 320.274 68.1807 320.071 69.2635H299.93C299.93 72.0129 300.782 74.0879 302.487 75.4885C304.154 76.8915 306.277 77.6454 308.461 77.6102C310.266 77.6884 312.045 77.1563 313.507 76.1006ZM302.424 60.5381C301.032 61.6724 300.138 63.2999 299.93 65.0772H314.049L314.107 64.5584C314.14 63.768 313.987 62.9808 313.659 62.2601C313.331 61.5393 312.837 60.9051 312.218 60.4084C310.852 59.3618 309.161 58.824 307.438 58.8885C305.623 58.835 303.847 59.4211 302.424 60.5433V60.5381Z" fill="white"/>
<path d="M336.397 76.1318L342.1 54.0901H349.311L355.019 76.1318L361.025 54.0901H367.333L358.922 82.4035H351.414L345.706 62.5146L340.003 82.4035H332.489L324.083 54.0901H330.391L336.397 76.1318Z" fill="white"/>
<path d="M372.139 82.4034V40.5974H378.447V59.8845C379.157 57.9735 380.463 56.3379 382.173 55.2157C383.999 54.0549 386.132 53.4641 388.299 53.5194C391.429 53.5194 393.902 54.4739 395.718 56.3829C397.534 58.2919 398.445 60.7612 398.452 63.7907V82.4242H392.144V65.5596C392.144 63.329 391.584 61.6275 390.464 60.4551C389.344 59.2827 387.721 58.6948 385.596 58.6913C384.623 58.6754 383.66 58.8763 382.776 59.2794C381.892 59.6825 381.11 60.2774 380.487 61.0205C379.131 62.5733 378.451 64.6829 378.447 67.3493V82.393L372.139 82.4034Z" fill="white"/>
<path d="M409.623 81.9625C408.202 81.3044 406.988 80.2731 406.112 78.9797C405.19 77.5984 404.718 75.9683 404.76 74.311C404.76 71.2503 405.781 68.9713 407.823 67.4738C409.865 65.9764 412.474 65.2311 415.65 65.238C417.352 65.2297 419.048 65.4301 420.701 65.8346L423.701 66.5505V64.4755C423.746 63.6535 423.598 62.8325 423.27 62.0766C422.943 61.3207 422.444 60.6503 421.812 60.118C420.483 59.0602 418.818 58.5083 417.116 58.5617C415.438 58.493 413.793 59.0353 412.488 60.0868C411.265 61.1379 410.457 62.5865 410.208 64.1746L404.5 62.6858C405.054 60.0357 406.532 57.6655 408.674 55.9939C410.82 54.3235 413.634 53.4883 417.116 53.4883C421.162 53.4883 424.275 54.474 426.456 56.4452C428.637 58.4165 429.728 61.1831 429.728 64.7452V82.3827H423.685V77.605C423.02 79.2273 421.84 80.5896 420.325 81.4853C418.715 82.4951 416.65 83 414.132 83C412.57 82.995 411.029 82.6404 409.623 81.9625ZM421.729 76.0228C422.375 75.4914 422.888 74.8176 423.226 74.055C423.565 73.2923 423.72 72.4618 423.68 71.629V71.3333L421.4 70.7368C419.853 70.295 418.26 70.0339 416.652 69.9587C415.308 69.8934 413.975 70.2158 412.812 70.8872C412.336 71.1873 411.951 71.6092 411.697 72.1086C411.442 72.608 411.328 73.1663 411.366 73.7248C411.358 74.2539 411.469 74.778 411.693 75.2584C411.916 75.7389 412.245 76.1632 412.655 76.5001C413.521 77.2367 414.853 77.605 416.652 77.605C418.476 77.6927 420.273 77.14 421.729 76.0436V76.0228Z" fill="white"/>
<path d="M443.685 54.0901V58.1C444.276 56.727 445.257 55.5552 446.508 54.7281C447.916 53.8637 449.551 53.4373 451.204 53.5039C452.874 53.4746 454.509 53.9883 455.858 54.9668C457.293 56.081 458.3 57.6499 458.713 59.4125C459.291 57.6165 460.441 56.0561 461.989 54.9668C463.415 54.0024 465.102 53.4921 466.826 53.5039C469.467 53.5039 471.578 54.3391 473.161 56.0095C474.743 57.6798 475.531 60.1059 475.524 63.2875V82.3983H469.216V64.657C469.216 62.9071 468.766 61.5445 467.865 60.5693C467.418 60.1067 466.881 59.7387 466.288 59.4873C465.694 59.2359 465.056 59.1063 464.41 59.1063C463.765 59.1063 463.127 59.2359 462.533 59.4873C461.94 59.7387 461.403 60.1067 460.956 60.5693C460.055 61.5445 459.605 62.9071 459.605 64.657V82.3983H453.297V64.657C453.297 62.9071 452.846 61.5445 451.945 60.5693C451.51 60.0916 450.976 59.7135 450.38 59.4609C449.783 59.2084 449.139 59.0874 448.491 59.1064C447.829 59.0823 447.17 59.2102 446.566 59.4801C445.961 59.75 445.427 60.1546 445.005 60.6626C444.122 61.7001 443.682 63.2235 443.685 65.2328V82.3516H437.377V54.0901H443.685Z" fill="white"/>
</g>
<defs>
<clipPath id="clip0_458_1465">
<rect width="571" height="83" fill="white"/>
</clipPath>
</defs>
</svg>
